<svg width="29" height="28" viewBox="0 0 29 28" fill="none" xmlns="http://www.w3.org/2000/svg">
    <g clip-path="url(#clip0_495_257)">
        <path d="M20.5648 11.4058C20.5648 9.11216 19.6537 6.91244 18.0318 5.29058C16.4099 3.66872 14.2102 2.75756 11.9166 2.75756C9.6229 2.75756 7.42318 3.66872 5.80132 5.29058C4.17946 6.91244 3.2683 9.11216 3.2683 11.4058C3.2683 13.6995 4.17946 15.8992 5.80132 17.5211C7.42318 19.1429 9.6229 20.0541 11.9166 20.0541C14.2102 20.0541 16.4099 19.1429 18.0318 17.5211C19.6537 15.8992 20.5648 13.6995 20.5648 11.4058ZM18.8946 20.2216C16.9812 21.7405 14.5543 22.6486 11.9166 22.6486C5.70603 22.6486 0.673828 17.6163 0.673828 11.4058C0.673828 5.19529 5.70603 0.163086 11.9166 0.163086C18.1271 0.163086 23.1593 5.19529 23.1593 11.4058C23.1593 14.0435 22.2512 16.4705 20.7324 18.3839L27.9699 25.6214C28.478 26.1295 28.478 26.9511 27.9699 27.4537C27.4618 27.9564 26.6402 27.9618 26.1375 27.4537L18.8946 20.2216Z" fill="#626875"/>
    </g>
    <defs>
        <clipPath id="clip0_495_257">
            <rect width="27.6744" height="27.6744" fill="white" transform="translate(0.673828 0.163086)"/>
        </clipPath>
    </defs>
</svg>
