<svg width="1194" height="270" viewBox="0 0 1194 270" fill="none" xmlns="http://www.w3.org/2000/svg">
<path d="M129.721 250.673C128.78 268.336 111.234 273.51 100.298 267.065C94.1449 263.439 91.4113 257.739 91.3662 250.794C91.2409 231.485 91.2316 212.176 91.218 192.867C91.1942 158.911 91.2013 124.956 91.1955 91.0003C91.1952 89.3525 91.1954 87.7048 91.1954 85.2734C104.033 85.2734 116.514 85.2734 129.92 85.2734C129.92 91.1129 129.918 96.5372 129.92 101.961C129.929 129.49 129.964 157.018 129.941 184.546C129.923 206.44 129.833 228.334 129.721 250.673Z" fill="#F55050"/>
<path d="M93.5548 34.5607C117.965 32.7544 141.529 34.3884 164.144 43.2459C186.45 51.9825 204.661 65.9703 217.827 86.1503C219.024 87.9856 219.973 90.494 219.816 92.5987C219.456 97.4183 213.973 99.5814 210.18 96.6042C196.592 85.9402 180.66 80.8465 164.126 77.3385C137.2 71.6258 109.945 70.8629 82.6549 73.4061C60.8835 75.4349 39.5246 79.6241 20.0775 90.4464C17.4707 91.897 14.9343 93.5527 12.6163 95.4242C9.63065 97.8347 6.59241 99.4166 3.24491 96.552C-0.296139 93.5217 0.935001 90.0087 2.95588 86.6675C10.7732 73.7431 21.4095 63.5563 33.8721 55.2202C51.8136 43.2193 71.7989 37.0011 93.5548 34.5607Z" fill="#F55050"/>
<path d="M149.865 202.911C163.094 185.009 162.229 157.941 147.389 141.354C146.381 140.227 145.359 138.599 145.337 137.188C145.167 126.375 145.244 115.559 145.244 104.256C151.765 106.741 154.513 101.329 158.245 98.3848C163.397 94.321 169.505 94.2354 174.237 98.8322C178.514 102.988 182.812 107.123 187.111 111.256C190.618 114.627 191.35 118.12 188.011 122.144C184.749 126.076 179.787 129.902 179.125 134.308C178.505 138.432 183.21 143.094 184.357 147.814C185.644 153.113 188.258 155.041 193.378 154.211C193.702 154.159 194.043 154.211 194.376 154.223C207.436 154.668 208.283 155.538 208.283 168.501C208.283 174.162 208.136 179.829 208.329 185.484C208.473 189.719 206.196 191.538 202.5 192.129C197.256 192.967 190.854 192.099 187.06 194.862C183.492 197.46 182.698 203.836 180.616 208.521C179.946 210.029 179.062 211.443 178.254 212.942C181.668 217.463 184.955 221.987 188.43 226.361C190.969 229.557 190.696 232.381 187.921 235.176C182.42 240.715 176.97 246.303 171.417 251.788C168.811 254.362 165.744 254.538 162.813 252.433C159.076 249.749 155.591 246.709 151.819 244.077C150.408 243.093 148.496 242.826 146.111 241.985C146.111 231.531 145.943 220.265 146.268 209.013C146.325 207.04 148.446 205.126 149.865 202.911Z" fill="#F68902"/>
<path d="M71.658 202.762C58.4296 184.861 59.2939 157.792 74.1345 141.205C75.1422 140.079 76.1643 138.45 76.1865 137.039C76.3562 126.227 76.2797 115.411 76.2797 104.108C69.7586 106.593 67.0109 101.18 63.2784 98.2364C58.1265 94.1726 52.0184 94.087 47.2869 98.6837C43.0092 102.84 38.7115 106.975 34.412 111.108C30.9058 114.479 30.1732 117.972 33.512 121.996C36.7746 125.928 41.7366 129.753 42.3987 134.16C43.0184 138.284 38.3132 142.946 37.1666 147.666C35.8796 152.965 33.2654 154.892 28.1453 154.063C27.8218 154.01 27.4804 154.063 27.1476 154.074C14.0875 154.52 13.2403 155.389 13.2405 168.352C13.2407 174.014 13.3875 179.681 13.1947 185.336C13.0504 189.57 15.3271 191.39 19.0238 191.98C24.2678 192.818 30.6696 191.951 34.4637 194.713C38.0312 197.311 38.8257 203.688 40.9073 208.372C41.5777 209.881 42.4612 211.294 43.2697 212.793C39.8553 217.315 36.5681 221.838 33.0933 226.213C30.5548 229.409 30.8274 232.233 33.6029 235.028C39.103 240.566 44.5537 246.155 50.1069 251.64C52.7128 254.213 55.7792 254.389 58.7101 252.285C62.4479 249.601 65.9323 246.56 69.7042 243.929C71.1155 242.944 73.0278 242.678 75.4128 241.837C75.4128 231.383 75.58 220.116 75.2553 208.864C75.1984 206.891 73.0778 204.977 71.658 202.762Z" fill="#0491D5"/>
<path d="M110.689 21.2134C101.81 21.2026 100.428 21.3609 91.5297 21.3609C90.7719 14.5333 93.5243 8.95833 99.1857 4.67633C105.154 0.161897 113.759 -0.208709 120.282 3.64124C126.677 7.41605 130.204 13.8297 129.189 21.3609C125.527 21.1318 110.689 21.2134 110.689 21.2134Z" fill="#F55050"/>
<path d="M300 218.844V59.2724H350.455L383.445 136.902L417.728 59.2724H466.458V218.844H429.587V116.847L400.479 182.617H365.98L336.871 116.416V218.844H300Z" fill="white"/>
<path d="M568.099 221C554.874 221 543.231 218.7 533.169 214.1C523.107 209.356 514.697 203.102 507.941 195.339C501.329 187.433 496.298 178.591 492.848 168.816C489.542 159.04 487.889 149.049 487.889 138.842C487.889 128.779 489.542 118.86 492.848 109.084C496.298 99.309 501.329 90.5397 507.941 82.7768C514.697 75.0139 523.107 68.8323 533.169 64.232C543.231 59.488 554.874 57.116 568.099 57.116C579.455 57.116 589.086 58.5536 596.992 61.4288C605.042 64.1602 611.726 67.826 617.045 72.4262C622.507 76.8827 626.819 81.6267 629.982 86.6583C633.288 91.546 635.732 96.2182 637.313 100.675C638.894 105.131 639.9 108.797 640.332 111.672C640.907 114.547 641.194 115.985 641.194 115.985H604.323C604.323 115.985 603.892 114.691 603.029 112.103C602.311 109.516 600.73 106.569 598.286 103.262C595.986 99.8121 592.464 96.7932 587.72 94.2056C582.977 91.6179 576.58 90.3241 568.53 90.3241C559.187 90.3241 551.353 92.6961 545.028 97.4401C538.847 102.184 534.175 108.294 531.013 115.769C527.994 123.101 526.485 130.792 526.485 138.842C526.485 146.893 527.994 154.656 531.013 162.131C534.175 169.607 538.847 175.716 545.028 180.46C551.353 185.204 559.187 187.576 568.53 187.576C576.58 187.576 582.977 186.282 587.72 183.695C592.464 181.107 595.986 178.16 598.286 174.854C600.73 171.547 602.311 168.6 603.029 166.013C603.892 163.425 604.323 162.131 604.323 162.131H641.194C641.194 162.131 640.907 163.569 640.332 166.444C639.9 169.175 638.894 172.841 637.313 177.441C635.732 181.898 633.288 186.642 629.982 191.673C626.819 196.561 622.507 201.305 617.045 205.905C611.726 210.362 605.042 214.028 596.992 216.903C589.086 219.634 579.455 221 568.099 221Z" fill="white"/>
<path d="M778.483 221C770.002 221 761.808 219.85 753.902 217.55C745.996 215.106 738.881 211.296 732.556 206.121C726.375 200.946 721.416 194.189 717.678 185.851C714.085 177.513 712.288 167.45 712.288 155.662V59.2724H749.59V155.662C749.59 164.144 751.89 171.332 756.49 177.226C761.233 182.976 768.564 185.851 778.483 185.851C788.401 185.851 795.661 182.976 800.261 177.226C805.004 171.332 807.376 164.144 807.376 155.662V59.2724H844.678V155.662C844.678 167.45 842.809 177.513 839.072 185.851C835.478 194.189 830.519 200.946 824.194 206.121C818.013 211.296 810.97 215.106 803.064 217.55C795.158 219.85 786.964 221 778.483 221Z" fill="white"/>
<path d="M924.929 221C915.154 221 907.392 219.491 901.642 216.472C896.036 213.453 891.939 209.715 889.352 205.259C886.764 200.658 885.111 196.058 884.393 191.458C883.674 186.714 883.314 182.689 883.314 179.382V133.883H864.34V104.556H883.314V76.3077H920.185V104.556H943.472V133.883H920.185V178.304C920.185 182.617 921.335 186.067 923.635 188.654C926.079 191.098 930.176 192.32 935.926 192.32C938.369 192.32 940.525 192.177 942.394 191.889C944.263 191.458 945.197 191.242 945.197 191.242V218.844C945.197 218.844 943.113 219.203 938.944 219.922C934.919 220.641 930.248 221 924.929 221Z" fill="white"/>
<path d="M986.684 90.971C980.503 90.971 975.4 88.9584 971.375 84.9332C967.35 80.9079 965.337 76.1639 965.337 70.7011C965.337 64.9508 967.35 60.0631 971.375 56.0378C975.4 52.0126 980.503 50 986.684 50C992.865 50 997.968 52.0126 1001.99 56.0378C1006.02 60.0631 1008.03 64.9508 1008.03 70.7011C1008.03 76.1639 1006.02 80.9079 1001.99 84.9332C997.968 88.9584 992.865 90.971 986.684 90.971ZM968.14 218.844V104.556H1005.01V218.844H968.14Z" fill="white"/>
<path d="M1033.4 218.844V54.9596H1070.27V218.844H1033.4Z" fill="white"/>
<path d="M1145.92 221C1136.14 221 1128.02 219.706 1121.55 217.119C1115.23 214.531 1110.2 211.296 1106.46 207.415C1102.72 203.533 1099.92 199.652 1098.05 195.77C1096.18 191.889 1094.96 188.654 1094.38 186.067C1093.81 183.479 1093.52 182.185 1093.52 182.185H1127.16C1127.16 182.185 1127.37 182.832 1127.8 184.126C1128.38 185.276 1129.31 186.714 1130.61 188.439C1132.05 190.02 1134.13 191.458 1136.86 192.752C1139.59 193.902 1143.26 194.477 1147.86 194.477C1153.46 194.477 1157.13 193.398 1158.85 191.242C1160.58 189.086 1161.44 187.145 1161.44 185.42C1161.44 181.107 1157.78 178.232 1150.44 176.794L1134.7 173.991C1127.8 172.841 1121.34 170.972 1115.3 168.385C1109.26 165.797 1104.37 162.203 1100.64 157.603C1096.9 153.003 1095.03 147.037 1095.03 139.705C1095.03 132.661 1096.83 126.335 1100.42 120.729C1104.16 115.122 1109.48 110.666 1116.38 107.359C1123.42 104.053 1131.9 102.4 1141.82 102.4C1150.88 102.4 1158.42 103.622 1164.46 106.066C1170.5 108.509 1175.31 111.528 1178.91 115.122C1182.5 118.716 1185.16 122.31 1186.88 125.904C1188.61 129.498 1189.76 132.517 1190.33 134.961C1190.91 137.405 1191.2 138.627 1191.2 138.627H1158.64C1158.64 138.627 1158.21 137.764 1157.34 136.039C1156.48 134.314 1154.76 132.589 1152.17 130.864C1149.73 129.139 1145.99 128.276 1140.96 128.276C1135.93 128.276 1132.48 129.282 1130.61 131.295C1128.74 133.164 1127.8 135.105 1127.8 137.117C1127.8 139.705 1129.03 141.646 1131.47 142.939C1133.91 144.09 1137 145.024 1140.74 145.743L1155.19 148.546C1166.54 150.702 1175.82 154.512 1183 159.975C1190.33 165.294 1194 173.129 1194 183.479C1194 194.117 1189.83 203.03 1181.49 210.218C1173.3 217.406 1161.44 221 1145.92 221Z" fill="white"/>
</svg>
