<svg width="615" height="634" viewBox="0 0 615 634" fill="none" xmlns="http://www.w3.org/2000/svg">
<path d="M135.5 95.75L110.375 110.688L153.5 119.32L178.625 104.406L135.5 95.75Z" fill="#695C5C"/>
<path d="M85.25 125.625L128.375 134.234L153.5 119.32L110.375 110.688L85.25 125.625Z" fill="#7F7F7F"/>
<path d="M85.25 125.625L60.125 140.562L103.25 149.148L128.375 134.234L85.25 125.625Z" fill="#695C5C"/>
<path d="M35 155.5L78.125 164.062L103.25 149.148L60.125 140.562L35 155.5Z" fill="#747474"/>
<path d="M171.5 142.844L128.375 134.234L103.25 149.148L146.375 157.734L171.5 142.844Z" fill="#960606"/>
<path d="M196.625 127.953L153.5 119.32L128.375 134.234L171.5 142.844L196.625 127.953Z" fill="#8F8F8F"/>
<path d="M221.75 113.062L178.625 104.406L153.5 119.32L196.625 127.953L221.75 113.062Z" fill="#F71C1C"/>
<path d="M246.875 98.1719L203.75 89.4922L178.625 104.406L221.75 113.062L246.875 98.1719Z" fill="#695C5C"/>
<path d="M297.125 68.3906L254 59.6641L228.875 74.5781L272 83.2812L297.125 68.3906Z" fill="#695C5C"/>
<path d="M365.375 62.25L322.25 53.5L297.125 68.3906L340.25 77.1172L365.375 62.25Z" fill="#7F7F7F"/>
<path d="M408.5 71L365.375 62.25L340.25 77.1172L383.375 85.8438L408.5 71Z" fill="#695C5C"/>
<path d="M451.625 79.75L408.5 71L383.375 85.8438L426.5 94.5703L451.625 79.75Z" fill="#7F7F7F"/>
<path d="M358.25 100.688L401.375 109.391L426.5 94.5703L383.375 85.8438L358.25 100.688Z" fill="#695C5C"/>
<path d="M333.125 115.531L376.25 124.211L401.375 109.391L358.25 100.688L333.125 115.531Z" fill="#970303"/>
<path d="M282.875 145.219L326 153.852L351.125 139.031L308 130.375L282.875 145.219Z" fill="#CA0707"/>
<path d="M257.75 160.062L300.875 168.672L326 153.852L282.875 145.219L257.75 160.062Z" fill="#7F7F7F"/>
<path d="M232.625 174.906L275.75 183.492L300.875 168.672L257.75 160.062L232.625 174.906Z" fill="#8F8F8F"/>
<path d="M250.625 198.312L293.75 206.875L318.875 192.078L275.75 183.492L250.625 198.312Z" fill="#686868"/>
<path d="M369.125 162.484L326 153.852L300.875 168.672L344 177.281L369.125 162.484Z" fill="#695C5C"/>
<path d="M394.25 147.688L351.125 139.031L326 153.852L369.125 162.484L394.25 147.688Z" fill="#960606"/>
<path d="M419.375 132.891L376.25 124.211L351.125 139.031L394.25 147.688L419.375 132.891Z" fill="#8F8F8F"/>
<path d="M444.5 118.094L401.375 109.391L376.25 124.211L419.375 132.891L444.5 118.094Z" fill="#695C5C"/>
<path d="M469.625 103.297L426.5 94.5703L401.375 109.391L444.5 118.094L469.625 103.297Z" fill="#7F7F7F"/>
<path d="M444.5 118.094L487.625 126.797L512.75 112.023L469.625 103.297L444.5 118.094Z" fill="#695C5C"/>
<path d="M419.375 132.891L462.5 141.57L487.625 126.797L444.5 118.094L419.375 132.891Z" fill="#F71C1C"/>
<path d="M369.125 162.484L412.25 171.117L437.375 156.344L394.25 147.688L369.125 162.484Z" fill="#F71C1C"/>
<path d="M419.375 132.891L394.25 147.688L437.375 156.344L462.5 141.57L419.375 132.891Z" fill="#BF9393"/>
<path d="M344 177.281L387.125 185.891L412.25 171.117L369.125 162.484L344 177.281Z" fill="#BF9393"/>
<path d="M581 106L537.875 97.25L512.75 112.023L555.875 120.75L581 106Z" fill="#7F7F7F"/>
<path d="M530.75 135.5L555.875 120.75L512.75 112.023L487.625 126.797L530.75 135.5Z" fill="#7F7F7F"/>
<path d="M505.625 150.25L530.75 135.5L487.625 126.797L462.5 141.57L505.625 150.25Z" fill="#686868"/>
<path d="M480.5 165L505.625 150.25L462.5 141.57L437.375 156.344L480.5 165Z" fill="#7F7F7F"/>
<path d="M455.375 179.75L480.5 165L437.375 156.344L412.25 171.117L455.375 179.75Z" fill="#747474"/>
<path d="M430.25 194.5L455.375 179.75L412.25 171.117L387.125 185.891L430.25 194.5Z" fill="#7F7F7F"/>
<path d="M405.125 209.25L430.25 194.5L387.125 185.891L362 200.664L405.125 209.25Z" fill="#8F8F8F"/>
<path d="M455.375 179.75L430.25 194.5V241.25L455.375 226.5V179.75Z" fill="#4C4C4C"/>
<path d="M480.5 211.75V165L455.375 179.75V226.5L480.5 211.75Z" fill="#695C5C"/>
<path d="M505.625 150.25L480.5 165V211.75L505.625 197V150.25Z" fill="#4C4C4C"/>
<path d="M505.625 243.75L530.75 229V182.25L505.625 197V243.75Z" fill="#4C4C4C"/>
<path d="M530.75 182.25V229L555.875 214.25V167.5L530.75 182.25Z" fill="#695C5C"/>
<path d="M581 246.25V199.5L555.875 214.25V261L581 246.25Z" fill="#3E3E3E"/>
<path d="M530.75 229V275.75L555.875 261V214.25L530.75 229Z" fill="#941111"/>
<path d="M530.75 229L505.625 243.75V290.5L530.75 275.75V229Z" fill="#695C5C"/>
<path d="M480.5 258.5V305.25L505.625 290.5V243.75L480.5 258.5Z" fill="#5B0202"/>
<path d="M505.625 197L480.5 211.75V258.5L505.625 243.75V197Z" fill="#695C5C"/>
<path d="M480.5 305.25V258.5L455.375 273.25V320L480.5 305.25Z" fill="#790404"/>
<path d="M430.25 288V334.75L455.375 320V273.25L430.25 288Z" fill="#990000"/>
<path d="M405.125 256V302.75L430.25 288V241.25L405.125 256Z" fill="#695C5C"/>
<path d="M430.25 334.75V288L405.125 302.75V349.5L430.25 334.75Z" fill="#790404"/>
<path d="M336.875 308.953V262.195L293.75 253.641V300.406L336.875 308.953Z" fill="#544A4A"/>
<path d="M250.625 245.086V291.859L293.75 300.406V253.641L250.625 245.086Z" fill="#666666"/>
<path d="M207.5 189.75V236.531L250.625 245.086V198.312L207.5 189.75Z" fill="#666666"/>
<path d="M250.625 291.859V245.086L207.5 236.531V283.312L250.625 291.859Z" fill="#544A4A"/>
<path d="M207.5 189.75L164.375 181.188V227.977L207.5 236.531V189.75Z" fill="#544A4A"/>
<path d="M121.25 172.625V219.422L164.375 227.977V181.188L121.25 172.625Z" fill="#666666"/>
<path d="M78.125 210.867V257.672L121.25 266.219V219.422L78.125 210.867Z" fill="#544A4A"/>
<path d="M121.25 313.016V266.219L78.125 257.672V304.477L121.25 313.016Z" fill="#A20606"/>
<path d="M121.25 313.016L78.125 304.477V351.281L121.25 359.812V313.016Z" fill="#544A4A"/>
<path d="M164.375 321.555V274.766L121.25 266.219V313.016L164.375 321.555Z" fill="#CC0000"/>
<path d="M207.5 330.094V283.312L164.375 274.766V321.555L207.5 330.094Z" fill="#A20606"/>
<path d="M250.625 338.633V291.859L207.5 283.312V330.094L250.625 338.633Z" fill="#790202"/>
<path d="M293.75 347.172V300.406L250.625 291.859V338.633L293.75 347.172Z" fill="#544A4A"/>
<path d="M250.625 338.633V385.406L293.75 393.938V347.172L250.625 338.633Z" fill="#727272"/>
<path d="M336.875 355.711V308.953L293.75 300.406V347.172L336.875 355.711Z" fill="#C61616"/>
<path d="M293.75 347.172V393.938L336.875 402.469V355.711L293.75 347.172Z" fill="#997676"/>
<path d="M380 364.25V317.5L336.875 308.953V355.711L380 364.25Z" fill="#535353"/>
<path d="M380 411V364.25L336.875 355.711V402.469L380 411Z" fill="#666666"/>
<path d="M35 342.75V389.562L78.125 398.086V351.281L35 342.75Z" fill="#544A4A"/>
<path d="M35 436.375L78.125 444.891V398.086L35 389.562V436.375Z" fill="#666666"/>
<path d="M35 436.375V483.188L78.125 491.695V444.891L35 436.375Z" fill="#544A4A"/>
<path d="M35 530L78.125 538.5V491.695L35 483.188V530Z" fill="#5D5D5D"/>
<path d="M121.25 359.812L78.125 351.281V398.086L121.25 406.609V359.812Z" fill="#C61616"/>
<path d="M78.125 398.086V444.891L121.25 453.406V406.609L78.125 398.086Z" fill="#727272"/>
<path d="M78.125 444.891V491.695L121.25 500.203V453.406L78.125 444.891Z" fill="#780505"/>
<path d="M121.25 453.406V500.203L164.375 508.711V461.922L121.25 453.406Z" fill="#C61616"/>
<path d="M164.375 461.922V508.711L207.5 517.219V470.438L164.375 461.922Z" fill="#A20606"/>
<path d="M250.625 385.406L207.5 376.875V423.656L250.625 432.18V385.406Z" fill="#A20606"/>
<path d="M207.5 423.656V470.438L250.625 478.953V432.18L207.5 423.656Z" fill="#666666"/>
<path d="M207.5 470.438V517.219L250.625 525.727V478.953L207.5 470.438Z" fill="#727272"/>
<path d="M293.75 393.938L250.625 385.406V432.18L293.75 440.703V393.938Z" fill="#780505"/>
<path d="M250.625 432.18V478.953L293.75 487.469V440.703L250.625 432.18Z" fill="#544A4A"/>
<path d="M250.625 478.953V525.727L293.75 534.234V487.469L250.625 478.953Z" fill="#A20606"/>
<path d="M250.625 572.5L293.75 581V534.234L250.625 525.727V572.5Z" fill="#535353"/>
<path d="M380 457.75V411L336.875 402.469V449.227L380 457.75Z" fill="#5D5D5D"/>
<path d="M336.875 402.469L293.75 393.938V440.703L336.875 449.227V402.469Z" fill="#C61616"/>
<path d="M293.75 440.703V487.469L336.875 495.984V449.227L293.75 440.703Z" fill="#997676"/>
<path d="M380 504.5V457.75L336.875 449.227V495.984L380 504.5Z" fill="#666666"/>
<path d="M380 551.25V504.5L336.875 495.984V542.742L380 551.25Z" fill="#727272"/>
<path d="M293.75 487.469V534.234L336.875 542.742V495.984L293.75 487.469Z" fill="#C61616"/>
<path d="M380 551.25V598L405.125 583.25V536.5L380 551.25Z" fill="#464646"/>
<path d="M380 504.5V551.25L405.125 536.5V489.75L380 504.5Z" fill="#695C5C"/>
<path d="M430.25 521.75V475L405.125 489.75V536.5L430.25 521.75Z" fill="#5A0404"/>
<path d="M430.25 475V521.75L455.375 507V460.25L430.25 475Z" fill="#941111"/>
<path d="M455.375 507L480.5 492.25V445.5L455.375 460.25V507Z" fill="#790404"/>
<path d="M505.625 477.5V430.75L480.5 445.5V492.25L505.625 477.5Z" fill="#565656"/>
<path d="M505.625 524.25L530.75 509.5V462.75L505.625 477.5V524.25Z" fill="#3E3E3E"/>
<path d="M505.625 430.75V477.5L530.75 462.75V416L505.625 430.75Z" fill="#790404"/>
<path d="M555.875 448V401.25L530.75 416V462.75L555.875 448Z" fill="#941111"/>
<path d="M581 433.25V386.5L555.875 401.25V448L581 433.25Z" fill="#565656"/>
<path d="M581 386.5V339.75L555.875 354.5V401.25L581 386.5Z" fill="#4C4C4C"/>
<path d="M530.75 369.25V416L555.875 401.25V354.5L530.75 369.25Z" fill="#735858"/>
<path d="M581 293L555.875 307.75V354.5L581 339.75V293Z" fill="#464646"/>
<path d="M530.75 369.25L555.875 354.5V307.75L530.75 322.5V369.25Z" fill="#941111"/>
<path d="M581 293V246.25L555.875 261V307.75L581 293Z" fill="#4C4C4C"/>
<path d="M555.875 261L530.75 275.75V322.5L555.875 307.75V261Z" fill="#735858"/>
<path d="M530.75 275.75L505.625 290.5V337.25L530.75 322.5V275.75Z" fill="#565656"/>
<path d="M505.625 384L530.75 369.25V322.5L505.625 337.25V384Z" fill="#5A0404"/>
<path d="M480.5 352V398.75L505.625 384V337.25L480.5 352Z" fill="#790404"/>
<path d="M430.25 334.75L405.125 349.5V396.25L430.25 381.5V334.75Z" fill="#695C5C"/>
<path d="M380 411V457.75L405.125 443V396.25L380 411Z" fill="#695C5C"/>
<path d="M430.25 428.25V381.5L405.125 396.25V443L430.25 428.25Z" fill="#941111"/>
<path d="M380 457.75V504.5L405.125 489.75V443L380 457.75Z" fill="#4C4C4C"/>
<path d="M405.125 489.75L430.25 475V428.25L405.125 443V489.75Z" fill="#565656"/>
<path d="M480.5 445.5L505.625 430.75V384L480.5 398.75V445.5Z" fill="#4C4C4C"/>
<path d="M505.625 430.75L530.75 416V369.25L505.625 384V430.75Z" fill="#695C5C"/>
<path d="M221.75 113.062L196.625 127.953L282.875 145.219L308 130.375L221.75 113.062Z" fill="#7F7F7F"/>
<path d="M322.25 53.5L236 36L210.875 50.9375L254 59.6641L297.125 68.3906L322.25 53.5Z" fill="#8F8F8F"/>
<path d="M135.5 95.75L178.625 104.406L203.75 89.4922L228.875 74.5781L254 59.6641L210.875 50.9375L135.5 95.75Z" fill="#7F7F7F"/>
<path d="M228.875 74.5781L203.75 89.4922L246.875 98.1719L333.125 115.531L358.25 100.688L272 83.2812L228.875 74.5781Z" fill="#FF0000"/>
<path d="M297.125 68.3906L272 83.2812L358.25 100.688L383.375 85.8438L340.25 77.1172L297.125 68.3906Z" fill="#960606"/>
<path d="M537.875 97.25L451.625 79.75L426.5 94.5703L469.625 103.297L512.75 112.023L537.875 97.25Z" fill="#747474"/>
<path d="M246.875 98.1719L221.75 113.062L308 130.375L351.125 139.031L376.25 124.211L333.125 115.531L246.875 98.1719Z" fill="#BF9393"/>
<path d="M196.625 127.953L171.5 142.844L257.75 160.062L282.875 145.219L196.625 127.953Z" fill="#695C5C"/>
<path d="M171.5 142.844L146.375 157.734L189.5 166.32L232.625 174.906L257.75 160.062L171.5 142.844Z" fill="#CA0707"/>
<path d="M300.875 168.672L275.75 183.492L318.875 192.078L362 200.664L387.125 185.891L344 177.281L300.875 168.672Z" fill="#F71C1C"/>
<path d="M293.75 206.875L336.875 215.438L380 224L405.125 209.25L362 200.664L318.875 192.078L293.75 206.875Z" fill="#747474"/>
<path d="M207.5 189.75L250.625 198.312L275.75 183.492L232.625 174.906L189.5 166.32L164.375 181.188L207.5 189.75Z" fill="#747474"/>
<path d="M121.25 172.625L164.375 181.188L189.5 166.32L146.375 157.734L103.25 149.148L78.125 164.062L121.25 172.625Z" fill="#686868"/>
<path d="M35 342.75L78.125 351.281V304.477V257.672V210.867L35 202.312V342.75Z" fill="#666666"/>
<path d="M78.125 164.062L35 155.5V202.312L78.125 210.867L121.25 219.422V172.625L78.125 164.062Z" fill="#727272"/>
<path d="M207.5 283.312V236.531L164.375 227.977L121.25 219.422V266.219L164.375 274.766L207.5 283.312Z" fill="#780505"/>
<path d="M336.875 215.438L293.75 206.875L250.625 198.312V245.086L293.75 253.641L336.875 262.195V215.438Z" fill="#5D5D5D"/>
<path d="M380 224L336.875 215.438V262.195V308.953L380 317.5V270.75V224Z" fill="#666666"/>
<path d="M121.25 313.016V359.812L207.5 376.875L250.625 385.406V338.633L207.5 330.094L164.375 321.555L121.25 313.016Z" fill="#997676"/>
<path d="M121.25 359.812V406.609L207.5 423.656V376.875L121.25 359.812Z" fill="#666666"/>
<path d="M121.25 406.609V453.406L164.375 461.922L207.5 470.438V423.656L121.25 406.609Z" fill="#544A4A"/>
<path d="M164.375 555.5V508.711L121.25 500.203L78.125 491.695V538.5L164.375 555.5Z" fill="#535353"/>
<path d="M250.625 572.5V525.727L207.5 517.219L164.375 508.711V555.5L250.625 572.5Z" fill="#5D5D5D"/>
<path d="M293.75 581L380 598V551.25L336.875 542.742L293.75 534.234V581Z" fill="#5D5D5D"/>
<path d="M380 224V270.75L405.125 256L430.25 241.25V194.5L405.125 209.25L380 224Z" fill="#565656"/>
<path d="M380 317.5V364.25V411L405.125 396.25V349.5V302.75V256L380 270.75V317.5Z" fill="#4C4C4C"/>
<path d="M505.625 290.5L480.5 305.25L455.375 320L430.25 334.75V381.5L480.5 352L505.625 337.25V290.5Z" fill="#735858"/>
<path d="M480.5 398.75V352L430.25 381.5V428.25L480.5 398.75Z" fill="#4C4C4C"/>
<path d="M430.25 475L455.375 460.25L480.5 445.5V398.75L430.25 428.25V475Z" fill="#695C5C"/>
<path d="M455.375 553.75L505.625 524.25V477.5L480.5 492.25L455.375 507V553.75Z" fill="#464646"/>
<path d="M455.375 553.75V507L430.25 521.75L405.125 536.5V583.25L455.375 553.75Z" fill="#3E3E3E"/>
<path d="M581 480V433.25L555.875 448L530.75 462.75V509.5L581 480Z" fill="#464646"/>
<path d="M581 199.5V106L555.875 120.75V167.5V214.25L581 199.5Z" fill="#4C4C4C"/>
<path d="M530.75 135.5L505.625 150.25V197L530.75 182.25L555.875 167.5V120.75L530.75 135.5Z" fill="#464646"/>
<path d="M455.375 226.5L430.25 241.25V288L455.375 273.25L480.5 258.5V211.75L455.375 226.5Z" fill="#5A0404"/>
</svg>
