<svg width="20" height="20" viewBox="0 0 20 20" fill="none" xmlns="http://www.w3.org/2000/svg">
    <g clip-path="url(#clip0_681_111)">
        <path d="M14.2878 7.99812C14.2878 6.44111 13.6692 4.94788 12.5683 3.84691C11.4673 2.74594 9.97407 2.12742 8.41706 2.12742C6.86006 2.12742 5.36682 2.74594 4.26585 3.84691C3.16488 4.94788 2.54637 6.44111 2.54637 7.99812C2.54637 9.55512 3.16488 11.0484 4.26585 12.1493C5.36682 13.2503 6.86006 13.8688 8.41706 13.8688C9.97407 13.8688 11.4673 13.2503 12.5683 12.1493C13.6692 11.0484 14.2878 9.55512 14.2878 7.99812ZM13.154 13.9826C11.8551 15.0136 10.2076 15.63 8.41706 15.63C4.20117 15.63 0.785156 12.214 0.785156 7.99812C0.785156 3.78222 4.20117 0.366211 8.41706 0.366211C12.633 0.366211 16.049 3.78222 16.049 7.99812C16.049 9.78868 15.4325 11.4361 14.4015 12.735L19.3145 17.6481C19.6594 17.993 19.6594 18.5507 19.3145 18.8919C18.9696 19.2332 18.4119 19.2368 18.0707 18.8919L13.154 13.9826Z" fill="#626875"/>
    </g>
    <defs>
        <clipPath id="clip0_681_111">
            <rect width="18.7862" height="18.7862" fill="white" transform="translate(0.785156 0.366211)"/>
        </clipPath>
    </defs>
</svg>
